# xmcd
#
# Track frame offsets:
#	150
#	20454
#	41771
#	65176
#	79980
#	104602
#	124546
#	141295
#	158404
#	176464
#
# Disc length: 2575 seconds
#
# Revision: 1
# Processed by: cddbd v1.5.1PL0 Copyright (c) Steve Scherf et al.
# Submitted via: CDex 1.50Beta5
#
DISCID=850a0d0a
DTITLE=松田聖子 - Pineapple
DYEAR=1990
DGENRE=Pop
TTITLE0=P・R・E・S・E・N・T
TTITLE1=パイナップル・アイランド
TTITLE2=ひまわりの丘
TTITLE3=LOVE SONG
TTITLE4=渚のバルコニー
TTITLE5=ピンクのスクーター
TTITLE6=レモネードの夏
TTITLE7=赤いスイートピー
TTITLE8=水色の朝
TTITLE9=SUNSET BEACH
EXTD=
EXTT0=
EXTT1=
EXTT2=
EXTT3=
EXTT4=
EXTT5=
EXTT6=
EXTT7=
EXTT8=
EXTT9=
PLAYORDER=
